HIERARCHY
ROOT reference
{
  OFFSET 0 0 0
  CHANNELS 6 Xposition Yposition Zposition Zrotation Xrotation Yrotation
  JOINT Hips
  {
    OFFSET 370.543 87.5 183.721
    CHANNELS 3 Zrotation Xrotation Yrotation
    JOINT RightUpLeg
    {
      OFFSET -9.29072 -1.53718 -0.00769521
      CHANNELS 3 Zrotation Xrotation Yrotation
      JOINT RightLeg
      {
        OFFSET 0.000649198 -41.8926 0.0287464
        CHANNELS 3 Zrotation Xrotation Yrotation
        JOINT RightFoot
        {
          OFFSET -0.131981 -42.8927 0.241786
          CHANNELS 3 Zrotation Xrotation Yrotation
          End Site
          {
            OFFSET 0 -7.69 17.5
          }
        }
      }
    }
    JOINT LeftUpLeg
    {
      OFFSET 9.29816 -1.6623 -0.0330144
      CHANNELS 3 Zrotation Xrotation Yrotation
      JOINT LeftLeg
      {
        OFFSET 0.0555409 -41.8801 -0.0492089
        CHANNELS 3 Zrotation Xrotation Yrotation
        JOINT LeftFoot
        {
          OFFSET 0.737583 -41.1094 -0.206555
          CHANNELS 3 Zrotation Xrotation Yrotation
          End Site
          {
            OFFSET 0 -7.69 17.5
          }
        }
      }
    }
    JOINT Spine
    {
      OFFSET 0.0742767 14.2946 0.0485675
      CHANNELS 3 Zrotation Xrotation Yrotation
      JOINT Spine1
      {
        OFFSET 0.0332084 9.70841 0.0159593
        CHANNELS 3 Zrotation Xrotation Yrotation
        JOINT Spine2
        {
          OFFSET 0.0388468 10.1231 0.00288192
          CHANNELS 3 Zrotation Xrotation Yrotation
          JOINT Spine3
          {
            OFFSET 0.0300771 9.71993 0.00776905
            CHANNELS 3 Zrotation Xrotation Yrotation
            JOINT Neck
            {
              OFFSET 0.058413 10.382 0.0516165
              CHANNELS 3 Zrotation Xrotation Yrotation
              JOINT Head
              {
                OFFSET 0.0298281 9.47849 0.0268718
                CHANNELS 3 Zrotation Xrotation Yrotation
                End Site
                {
                  OFFSET 0 15.95 0
                }
              }
            }
            JOINT RightShoulder
            {
              OFFSET -3.15612 6.91385 0.0353801
              CHANNELS 3 Zrotation Xrotation Yrotation
              JOINT RightArm
              {
                OFFSET -12.7781 -0.0057607 0.0332486
                CHANNELS 3 Zrotation Xrotation Yrotation
                JOINT RightForeArm
                {
                  OFFSET -26.4999 -0.0425897 0.0409183
                  CHANNELS 3 Zrotation Xrotation Yrotation
                  JOINT RightHand
                  {
                    OFFSET -25.993 -0.0294641 0.00108206
                    CHANNELS 3 Zrotation Xrotation Yrotation
                    JOINT RightHandThumb1
                    {
                      OFFSET -2.48905 0.190105 3.12053
                      CHANNELS 3 Zrotation Xrotation Yrotation
                      JOINT RightHandThumb2
                      {
                        OFFSET -3.68274 0 0
                        CHANNELS 3 Zrotation Xrotation Yrotation
                        JOINT RightHandThumb3
                        {
                          OFFSET -2.55832 0 0
                          CHANNELS 3 Zrotation Xrotation Yrotation
                          End Site
                          {
                            OFFSET -2.194 0 0
                          }
                        }
                      }
                    }
                    JOINT RightInHandIndex
                    {
                      OFFSET -3.22368 0.508421 1.97842
                      CHANNELS 3 Zrotation Xrotation Yrotation
                      JOINT RightHandIndex1
                      {
                        OFFSET -5.21684 -0.091368 0.999158
                        CHANNELS 3 Zrotation Xrotation Yrotation
                        JOINT RightHandIndex2
                        {
                          OFFSET -3.61937 0 0
                          CHANNELS 3 Zrotation Xrotation Yrotation
                          JOINT RightHandIndex3
                          {
                            OFFSET -2.0521 0 0
                            CHANNELS 3 Zrotation Xrotation Yrotation
                            End Site
                            {
                              OFFSET -1.805 0 0
                            }
                          }
                        }
                      }
                    }
                    JOINT RightInHandMiddle
                    {
                      OFFSET -3.38211 0.517263 0.756737
                      CHANNELS 3 Zrotation Xrotation Yrotation
                      JOINT RightHandMiddle1
                      {
                        OFFSET -5.17411 -0.084 0.313895
                        CHANNELS 3 Zrotation Xrotation Yrotation
                        JOINT RightHandMiddle2
                        {
                          OFFSET -3.94947 0 0
                          CHANNELS 3 Zrotation Xrotation Yrotation
                          JOINT RightHandMiddle3
                          {
                            OFFSET -2.47579 0 0
                            CHANNELS 3 Zrotation Xrotation Yrotation
                            End Site
                            {
                              OFFSET -1.975 0 0
                            }
                          }
                        }
                      }
                    }
                    JOINT RightInHandRing
                    {
                      OFFSET -3.36516 0.537895 -0.128947
                      CHANNELS 3 Zrotation Xrotation Yrotation
                      JOINT RightHandRing1
                      {
                        OFFSET -4.63474 -0.022105 -0.478947
                        CHANNELS 3 Zrotation Xrotation Yrotation
                        JOINT RightHandRing2
                        {
                          OFFSET -3.44238 0 0
                          CHANNELS 3 Zrotation Xrotation Yrotation
                          JOINT RightHandRing3
                          {
                            OFFSET -2.3881 0 0
                            CHANNELS 3 Zrotation Xrotation Yrotation
                            End Site
                            {
                              OFFSET -1.857 0 0
                            }
                          }
                        }
                      }
                    }
                    JOINT RightInHandPinky
                    {
                      OFFSET -3.16105 0.469368 -1.20179
                      CHANNELS 3 Zrotation Xrotation Yrotation
                      JOINT RightHandPinky1
                      {
                        OFFSET -4.14105 -0.022105 -1.09053
                        CHANNELS 3 Zrotation Xrotation Yrotation
                        JOINT RightHandPinky2
                        {
                          OFFSET -2.75653 0 0
                          CHANNELS 3 Zrotation Xrotation Yrotation
                          JOINT RightHandPinky3
                          {
                            OFFSET -1.74189 0 0
                            CHANNELS 3 Zrotation Xrotation Yrotation
                            End Site
                            {
                              OFFSET -1.645 0 0
                            }
                          }
                        }
                      }
                    }
                  }
                }
              }
            }
            JOINT LeftShoulder
            {
              OFFSET 3.24463 6.9123 -0.0189685
              CHANNELS 3 Zrotation Xrotation Yrotation
              JOINT LeftArm
              {
                OFFSET 12.8793 -0.0485389 -0.0634723
                CHANNELS 3 Zrotation Xrotation Yrotation
                JOINT LeftForeArm
                {
                  OFFSET 26.4894 0.00252616 -0.136149
                  CHANNELS 3 Zrotation Xrotation Yrotation
                  JOINT LeftHand
                  {
                    OFFSET 26.005 0.0292639 -0.0166184
                    CHANNELS 3 Zrotation Xrotation Yrotation
                    JOINT LeftHandThumb1
                    {
                      OFFSET 2.48905 0.190105 3.12053
                      CHANNELS 3 Zrotation Xrotation Yrotation
                      JOINT LeftHandThumb2
                      {
                        OFFSET 3.68274 0 0
                        CHANNELS 3 Zrotation Xrotation Yrotation
                        JOINT LeftHandThumb3
                        {
                          OFFSET 2.55832 0 0
                          CHANNELS 3 Zrotation Xrotation Yrotation
                          End Site
                          {
                            OFFSET 2.194 0 0
                          }
                        }
                      }
                    }
                    JOINT LeftInHandIndex
                    {
                      OFFSET 3.22368 0.508421 1.97842
                      CHANNELS 3 Zrotation Xrotation Yrotation
                      JOINT LeftHandIndex1
                      {
                        OFFSET 5.21684 -0.091368 0.999158
                        CHANNELS 3 Zrotation Xrotation Yrotation
                        JOINT LeftHandIndex2
                        {
                          OFFSET 3.61937 0 0
                          CHANNELS 3 Zrotation Xrotation Yrotation
                          JOINT LeftHandIndex3
                          {
                            OFFSET 2.0521 0 0
                            CHANNELS 3 Zrotation Xrotation Yrotation
                            End Site
                            {
                              OFFSET 1.805 0 0
                            }
                          }
                        }
                      }
                    }
                    JOINT LeftInHandMiddle
                    {
                      OFFSET 3.38211 0.517263 0.756737
                      CHANNELS 3 Zrotation Xrotation Yrotation
                      JOINT LeftHandMiddle1
                      {
                        OFFSET 5.17411 -0.084 0.313895
                        CHANNELS 3 Zrotation Xrotation Yrotation
                        JOINT LeftHandMiddle2
                        {
                          OFFSET 3.94947 0 0
                          CHANNELS 3 Zrotation Xrotation Yrotation
                          JOINT LeftHandMiddle3
                          {
                            OFFSET 2.47579 0 0
                            CHANNELS 3 Zrotation Xrotation Yrotation
                            End Site
                            {
                              OFFSET 1.975 0 0
                            }
                          }
                        }
                      }
                    }
                    JOINT LeftInHandRing
                    {
                      OFFSET 3.36516 0.537895 -0.128947
                      CHANNELS 3 Zrotation Xrotation Yrotation
                      JOINT LeftHandRing1
                      {
                        OFFSET 4.63474 -0.022105 -0.478947
                        CHANNELS 3 Zrotation Xrotation Yrotation
                        JOINT LeftHandRing2
                        {
                          OFFSET 3.44238 0 0
                          CHANNELS 3 Zrotation Xrotation Yrotation
                          JOINT LeftHandRing3
                          {
                            OFFSET 2.3881 0 0
                            CHANNELS 3 Zrotation Xrotation Yrotation
                            End Site
                            {
                              OFFSET 1.857 0 0
                            }
                          }
                        }
                      }
                    }
                    JOINT LeftInHandPinky
                    {
                      OFFSET 3.16105 0.469368 -1.20179
                      CHANNELS 3 Zrotation Xrotation Yrotation
                      JOINT LeftHandPinky1
                      {
                        OFFSET 4.14105 -0.022105 -1.09053
                        CHANNELS 3 Zrotation Xrotation Yrotation
                        JOINT LeftHandPinky2
                        {
                          OFFSET 2.75653 0 0
                          CHANNELS 3 Zrotation Xrotation Yrotation
                          JOINT LeftHandPinky3
                          {
                            OFFSET 1.74189 0 0
                            CHANNELS 3 Zrotation Xrotation Yrotation
                            End Site
                            {
                              OFFSET 1.645 0 0
                            }
                          }
                        }
                      }
                    }
                  }
                }
              }
            }
          }
        }
      }
    }
  }
}
MOTION
Frames: 2
Frame Time: 0.00833333
1.500000000000000000e+02 0.000000000000000000e+00 0.000000000000000000e+00 0.000000000000000000e+00 0.000000000000000000e+00 -0.000000000000000000e+00 1.357300853779032802e-03 4.620955434363870767e-03 6.675433331579504886e-03 -6.066802296430449243e-03 -3.845786584471339725e-03 -3.363790337669755187e-03 3.023995110613817826e-03 6.740490506867973831e-03 -7.570599407681538606e-03 -1.027103367341606699e-03 -5.477907880816881847e-03 -1.622647141916944624e-03 -8.067139489551990172e-03 -1.192637530709172305e-02 -7.974168974794417289e-03 4.887461739254115450e-03 1.348045557149999546e-02 -4.621051505188467599e-03 2.215053104495949034e-03 -7.245999182658815520e-03 -2.027868581265421157e-03 -5.223435801287798497e-04 8.705880309549233510e-04 2.112321215970311362e-04 -3.796549431840667583e-05 4.568387200595329877e-04 -8.551765345583339306e-04 -1.586893543337452043e-04 3.019422067394834193e-04 3.184122829294969018e-04 2.742760486684463358e-04 1.766148746836565319e-05 -9.525684956681275731e-05 2.803889071831621002e-04 -5.627287859079264752e-05 -1.079563269993853681e-04 3.898404040832905478e-03 -6.932880929939981562e-03 -4.755287510151763250e-03 1.107033499078416937e-03 -8.325778093186259748e-03 7.295114572084701555e-04 -4.160581026981793190e-02 6.688655948958234509e-02 9.359805774963024516e-02 -1.720104525358782666e-01 -5.916817982270163034e-02 -1.689189312904898210e-01 -2.811685476297210579e-02 1.127698837346602888e-02 -1.847966548477167348e-02 0.000000000000000000e+00 0.000000000000000000e+00 0.000000000000000000e+00 -4.121108451605542477e-15 1.968929469037756465e-15 0.000000000000000000e+00 2.725647462538587219e-15 2.455671239433635043e-15 0.000000000000000000e+00 -3.595737612152347782e-15 3.600207702241716093e-15 -2.521194104331510101e-15 0.000000000000000000e+00 0.000000000000000000e+00 0.000000000000000000e+00 0.000000000000000000e+00 -1.180523570503675904e-15 -1.061243086966616768e-14 0.000000000000000000e+00 -4.465624902442530380e-15 1.379088124305565384e-15 -3.595737612152347782e-15 3.600207702241716093e-15 -2.521194104331510101e-15 0.000000000000000000e+00 -2.419388017964461201e-15 -1.469183909681182051e-14 0.000000000000000000e+00 -3.927022291634710742e-15 -7.038624038442544064e-15 0.000000000000000000e+00 3.695711459483611640e-15 -1.218686964939662438e-15 -3.595737612152347782e-15 3.600207702241716093e-15 -2.521194104331510101e-15 0.000000000000000000e+00 0.000000000000000000e+00 0.000000000000000000e+00 0.000000000000000000e+00 -2.420156356683987716e-16 -1.103150096468688544e-14 0.000000000000000000e+00 5.186583250529815715e-15 -5.539273814587353449e-16 -3.595737612152347782e-15 3.600207702241716093e-15 -2.521194104331510101e-15 0.000000000000000000e+00 0.000000000000000000e+00 0.000000000000000000e+00 0.000000000000000000e+00 5.573309722668023711e-15 1.422442946890382155e-16 0.000000000000000000e+00 3.507943081535555420e-15 -2.486379491240505100e-17 7.522055234334840959e-04 -1.226009028473369405e-03 2.590667152831919486e-03 -5.045296669416489584e-03 -4.360544711497679402e-03 4.667840285216325741e-03 -1.498897989930306381e-02 -2.220094242972450033e-02 -1.532134395373947050e-02 -1.541083224739386165e-02 -1.848929041246670383e-03 -1.294262460187418570e-03 0.000000000000000000e+00 0.000000000000000000e+00 0.000000000000000000e+00 -1.886389646782479273e-15 2.523072962859395221e-15 0.000000000000000000e+00 -1.633046033339264290e-15 9.355391318778214311e-16 0.000000000000000000e+00 -2.215836455184422641e-15 -1.527559621153303980e-15 -6.519548064586055848e-16 0.000000000000000000e+00 0.000000000000000000e+00 0.000000000000000000e+00 0.000000000000000000e+00 -1.586509375336823029e-15 4.328973396767725561e-16 0.000000000000000000e+00 2.415468869751055800e-16 -3.133894688745444597e-15 -2.215836455184422641e-15 -1.527559621153303980e-15 -6.519548064586055848e-16 0.000000000000000000e+00 -2.816946719292757749e-15 -2.617509336436226915e-15 0.000000000000000000e+00 -1.113829992900763426e-15 8.237225910998756961e-15 0.000000000000000000e+00 1.050515386740188110e-15 -8.920578364315876346e-16 -2.215836455184422641e-15 -1.527559621153303980e-15 -6.519548064586055848e-16 0.000000000000000000e+00 0.000000000000000000e+00 0.000000000000000000e+00 0.000000000000000000e+00 -4.304051990665230459e-15 -5.502938442597508850e-16 0.000000000000000000e+00 -4.506121019525024835e-16 2.664339053648810636e-16 -2.215836455184422641e-15 -1.527559621153303980e-15 -6.519548064586055848e-16 0.000000000000000000e+00 0.000000000000000000e+00 0.000000000000000000e+00 0.000000000000000000e+00 1.789151567465041241e-15 1.594408583635342683e-15 0.000000000000000000e+00 -6.048502632266336926e-16 -4.592744899212225814e-15
1.500000000000000000e+02 0.000000000000000000e+00 0.000000000000000000e+00 0.000000000000000000e+00 0.000000000000000000e+00 -0.000000000000000000e+00 -1.203246191283914102e-03 -4.275745468889203572e-03 -6.115952102032719100e-03 5.281571353059077295e-03 3.511579648056098284e-03 2.880754390092865689e-03 -2.233606118286457411e-03 -5.775085801650257575e-03 7.276907800048026953e-03 7.155488285150189481e-04 4.445599023647081420e-03 1.061182829033289858e-03 7.446243839222657472e-03 1.095090778111463409e-02 7.763217489891937120e-03 -4.270573836462916890e-03 -1.261573986527624210e-02 3.693665562173899068e-03 -2.072576156189684035e-03 6.711445257644463834e-03 1.939960965067144593e-03 2.441547920638147714e-04 -7.544464542900983575e-04 2.599578547313538416e-04 -1.034033354825974271e-05 -4.294502954848121315e-04 8.832880327622639072e-04 7.074371165270750407e-05 -2.379487387673190812e-04 -1.451897940990296378e-04 -2.339640274888023566e-04 -2.607849134951189263e-05 7.322082008457977368e-05 -2.392357224076426534e-04 4.506916613015475646e-05 8.468669680064262566e-05 -3.325536110580436765e-03 6.196986539294744960e-03 3.762533275245982453e-03 -4.707211304197400658e-04 7.394882837200103705e-03 -1.558980854402882820e-03 3.795956043713135525e-02 -6.083187958774299159e-02 -8.560517360773289841e-02 1.628684395359223380e-01 5.825132761482215010e-02 1.612098338339970627e-01 2.177733335290468406e-02 -1.406721730741538300e-02 1.478456729312023488e-02 0.000000000000000000e+00 0.000000000000000000e+00 0.000000000000000000e+00 4.587624712786078559e-15 -1.777718299211606429e-15 0.000000000000000000e+00 -2.308161050790511033e-15 -2.335567705775147569e-15 0.000000000000000000e+00 3.311759926695161517e-15 -3.442257216671579058e-15 2.407461703968923658e-15 0.000000000000000000e+00 0.000000000000000000e+00 0.000000000000000000e+00 0.000000000000000000e+00 1.379742700684124158e-15 1.112218804964542097e-14 0.000000000000000000e+00 4.460107833875838704e-15 -5.953646202564049700e-16 3.311759926695161517e-15 -3.442257216671579058e-15 2.407461703968923658e-15 0.000000000000000000e+00 2.330801808710903066e-15 1.475652411781803230e-14 0.000000000000000000e+00 3.975009701437560882e-15 7.619666869031002700e-15 0.000000000000000000e+00 -3.048905070361896031e-15 1.833693314435339495e-15 3.311759926695161517e-15 -3.442257216671579058e-15 2.407461703968923658e-15 0.000000000000000000e+00 0.000000000000000000e+00 0.000000000000000000e+00 0.000000000000000000e+00 4.983816331258084114e-16 1.114923504909023887e-14 0.000000000000000000e+00 -4.869226023323718270e-15 1.165949673366780447e-15 3.311759926695161517e-15 -3.442257216671579058e-15 2.407461703968923658e-15 0.000000000000000000e+00 0.000000000000000000e+00 0.000000000000000000e+00 0.000000000000000000e+00 -5.246600823514312567e-15 6.869993070134460232e-16 0.000000000000000000e+00 -3.266053956908814984e-15 3.810731089305339539e-16 -2.715402905181578353e-04 8.196702603888726723e-04 -2.651883995008591857e-03 4.597556593383724140e-03 4.051640164713562683e-03 -4.428093953407544019e-03 1.367598908090984604e-02 2.050610538171998565e-02 1.397330067867722306e-02 1.414939049807987202e-02 -2.898257438076994714e-04 5.469670562229570453e-04 0.000000000000000000e+00 0.000000000000000000e+00 0.000000000000000000e+00 1.963916458842380954e-15 -2.550617951039007114e-15 0.000000000000000000e+00 2.242074223433032921e-15 -1.307247710340168369e-15 0.000000000000000000e+00 2.037300186832740581e-15 1.454875954658842138e-15 9.321550789430707911e-16 0.000000000000000000e+00 0.000000000000000000e+00 0.000000000000000000e+00 0.000000000000000000e+00 1.634024320577823737e-15 -6.590097855695201746e-16 0.000000000000000000e+00 -8.277504392955567864e-17 2.269123596593832149e-15 2.037300186832740581e-15 1.454875954658842138e-15 9.321550789430707911e-16 0.000000000000000000e+00 2.814194175307967075e-15 1.751846030131692029e-15 0.000000000000000000e+00 1.306963218924490760e-15 -7.624712439824125389e-15 0.000000000000000000e+00 -9.115053597864807363e-16 3.460844959576553213e-16 2.037300186832740581e-15 1.454875954658842138e-15 9.321550789430707911e-16 0.000000000000000000e+00 0.000000000000000000e+00 0.000000000000000000e+00 0.000000000000000000e+00 3.836592751001660657e-15 -1.855471797091311997e-16 0.000000000000000000e+00 7.229388820279889953e-16 -8.750131931757805642e-16 2.037300186832740581e-15 1.454875954658842138e-15 9.321550789430707911e-16 0.000000000000000000e+00 0.000000000000000000e+00 0.000000000000000000e+00 0.000000000000000000e+00 -1.544837729353108703e-15 -1.930080285747445654e-15 0.000000000000000000e+00 7.859439104373651870e-16 3.424422478900316938e-15
